<?xml version="1.0" encoding="UTF-8"?>
<svg id="Layer_1" xmlns="http://www.w3.org/2000/svg" viewBox="0 0 135.05 14.83">
  <defs>
    <style>
      .cls-1 {
        fill: #231f20;
      }
    </style>
  </defs>
  <g>
    <g>
      <path class="cls-1" d="M49.27,11.81c-.65.56-1.76.18-1.76.18,0,0-.65.32-.23-.18s.92-.37.92-.37c0,0-.93-.09-1.06-.44s1.06-.16,1.06-.16c0,0-.69-.46-.41-.51s.97.41.97.41c0,0,.32.12.51.48s0,.59,0,.59h0Z"/>
      <path class="cls-1" d="M52.83,10.19c-.73.44-1.76-.11-1.76-.11,0,0-.69.21-.2-.22s.97-.21.97-.21c0,0-.9-.24-.97-.61s1.08.02,1.08.02c0,0-.61-.57-.32-.57s.88.57.88.57c0,0,.3.17.42.56s-.1.58-.1.58h0Z"/>
      <path class="cls-1" d="M56.4,12.31c-.48.7-1.65.62-1.65.62,0,0-.55.48-.27-.12s.8-.59.8-.59c0,0-.92.15-1.14-.16s.99-.43.99-.43c0,0-.79-.27-.53-.39s1.04.16,1.04.16c0,0,.34.03.61.33s.15.57.15.57h0Z"/>
      <path class="cls-1" d="M60.98,11.31c-.65.56-1.76.18-1.76.18,0,0-.65.32-.23-.18s.92-.37.92-.37c0,0-.93-.09-1.06-.44s1.06-.16,1.06-.16c0,0-.69-.46-.41-.51s.97.41.97.41c0,0,.32.12.51.48s0,.59,0,.59h0Z"/>
    </g>
    <g>
      <path class="cls-1" d="M65.31,12.54c-.65.56-1.76.18-1.76.18,0,0-.65.32-.23-.18s.92-.37.92-.37c0,0-.93-.09-1.06-.44s1.06-.16,1.06-.16c0,0-.69-.46-.41-.51s.97.41.97.41c0,0,.32.12.51.48s0,.59,0,.59h0Z"/>
      <path class="cls-1" d="M68.87,10.92c-.73.44-1.76-.11-1.76-.11,0,0-.69.21-.2-.22s.97-.21.97-.21c0,0-.9-.24-.97-.61-.08-.37,1.08.02,1.08.02,0,0-.61-.57-.32-.57s.88.57.88.57c0,0,.3.17.42.56s-.1.58-.1.58h0Z"/>
      <path class="cls-1" d="M72.43,13.04c-.48.7-1.65.62-1.65.62,0,0-.55.48-.27-.12.27-.6.8-.59.8-.59,0,0-.92.15-1.14-.16s.99-.43.99-.43c0,0-.79-.27-.53-.39s1.04.16,1.04.16c0,0,.34.03.61.33s.15.57.15.57h0Z"/>
      <path class="cls-1" d="M77.02,12.04c-.65.56-1.76.18-1.76.18,0,0-.65.32-.23-.18s.92-.37.92-.37c0,0-.93-.09-1.06-.44s1.06-.16,1.06-.16c0,0-.69-.46-.41-.51s.97.41.97.41c0,0,.32.12.51.48s0,.59,0,.59h0Z"/>
    </g>
    <g>
      <path class="cls-1" d="M80.95,10.21c-.73.44-1.76-.11-1.76-.11,0,0-.69.21-.2-.22s.97-.21.97-.21c0,0-.9-.24-.97-.61s1.08.02,1.08.02c0,0-.61-.57-.32-.57s.88.57.88.57c0,0,.3.17.42.56.12.38-.1.58-.1.58h0Z"/>
      <path class="cls-1" d="M84.52,12.34c-.48.7-1.65.62-1.65.62,0,0-.55.48-.27-.12.27-.6.8-.59.8-.59,0,0-.92.15-1.14-.16s.99-.43.99-.43c0,0-.79-.27-.53-.39s1.04.16,1.04.16c0,0,.34.03.61.33s.15.57.15.57h0Z"/>
      <path class="cls-1" d="M89.1,11.33c-.65.56-1.76.18-1.76.18,0,0-.65.32-.23-.18s.92-.37.92-.37c0,0-.93-.09-1.06-.44s1.06-.16,1.06-.16c0,0-.69-.46-.41-.51s.97.41.97.41c0,0,.32.12.51.48s0,.59,0,.59h0Z"/>
    </g>
  </g>
  <g>
    <g>
      <path class="cls-1" d="M49.27,11.81c-.65.56-1.76.18-1.76.18,0,0-.65.32-.23-.18s.92-.37.92-.37c0,0-.93-.09-1.06-.44s1.06-.16,1.06-.16c0,0-.69-.46-.41-.51s.97.41.97.41c0,0,.32.12.51.48s0,.59,0,.59h0Z"/>
      <path class="cls-1" d="M52.83,10.19c-.73.44-1.76-.11-1.76-.11,0,0-.69.21-.2-.22s.97-.21.97-.21c0,0-.9-.24-.97-.61s1.08.02,1.08.02c0,0-.61-.57-.32-.57s.88.57.88.57c0,0,.3.17.42.56s-.1.58-.1.58h0Z"/>
      <path class="cls-1" d="M56.4,12.31c-.48.7-1.65.62-1.65.62,0,0-.55.48-.27-.12s.8-.59.8-.59c0,0-.92.15-1.14-.16s.99-.43.99-.43c0,0-.79-.27-.53-.39s1.04.16,1.04.16c0,0,.34.03.61.33s.15.57.15.57h0Z"/>
      <path class="cls-1" d="M60.98,11.31c-.65.56-1.76.18-1.76.18,0,0-.65.32-.23-.18s.92-.37.92-.37c0,0-.93-.09-1.06-.44s1.06-.16,1.06-.16c0,0-.69-.46-.41-.51s.97.41.97.41c0,0,.32.12.51.48s0,.59,0,.59h0Z"/>
    </g>
    <g>
      <path class="cls-1" d="M65.31,12.54c-.65.56-1.76.18-1.76.18,0,0-.65.32-.23-.18s.92-.37.92-.37c0,0-.93-.09-1.06-.44s1.06-.16,1.06-.16c0,0-.69-.46-.41-.51s.97.41.97.41c0,0,.32.12.51.48s0,.59,0,.59h0Z"/>
      <path class="cls-1" d="M68.87,10.92c-.73.44-1.76-.11-1.76-.11,0,0-.69.21-.2-.22s.97-.21.97-.21c0,0-.9-.24-.97-.61-.08-.37,1.08.02,1.08.02,0,0-.61-.57-.32-.57s.88.57.88.57c0,0,.3.17.42.56s-.1.58-.1.58h0Z"/>
      <path class="cls-1" d="M72.43,13.04c-.48.7-1.65.62-1.65.62,0,0-.55.48-.27-.12.27-.6.8-.59.8-.59,0,0-.92.15-1.14-.16s.99-.43.99-.43c0,0-.79-.27-.53-.39s1.04.16,1.04.16c0,0,.34.03.61.33s.15.57.15.57h0Z"/>
      <path class="cls-1" d="M77.02,12.04c-.65.56-1.76.18-1.76.18,0,0-.65.32-.23-.18s.92-.37.92-.37c0,0-.93-.09-1.06-.44s1.06-.16,1.06-.16c0,0-.69-.46-.41-.51s.97.41.97.41c0,0,.32.12.51.48s0,.59,0,.59h0Z"/>
    </g>
    <g>
      <path class="cls-1" d="M80.95,10.21c-.73.44-1.76-.11-1.76-.11,0,0-.69.21-.2-.22s.97-.21.97-.21c0,0-.9-.24-.97-.61s1.08.02,1.08.02c0,0-.61-.57-.32-.57s.88.57.88.57c0,0,.3.17.42.56.12.38-.1.58-.1.58h0Z"/>
      <path class="cls-1" d="M84.52,12.34c-.48.7-1.65.62-1.65.62,0,0-.55.48-.27-.12.27-.6.8-.59.8-.59,0,0-.92.15-1.14-.16s.99-.43.99-.43c0,0-.79-.27-.53-.39s1.04.16,1.04.16c0,0,.34.03.61.33s.15.57.15.57h0Z"/>
      <path class="cls-1" d="M89.1,11.33c-.65.56-1.76.18-1.76.18,0,0-.65.32-.23-.18s.92-.37.92-.37c0,0-.93-.09-1.06-.44s1.06-.16,1.06-.16c0,0-.69-.46-.41-.51s.97.41.97.41c0,0,.32.12.51.48s0,.59,0,.59h0Z"/>
    </g>
  </g>
  <g>
    <path class="cls-1" d="M4.1,3.33c.29.39,3.13-1.41,3.13-1.41,0,0,.19-.19.29,0,.09.19,0,.41,0,.41l.04.73s.15,2.4,2.23,2.69v1.73s-.45,1.02-.99,1.05l-1.53,1.15h-.86l-2.01-.61v.32l.55.29.35.19.35.53.35.17.96-.17.32.46h.35l.19-.8.23-.25,2.4-1.15,1.21-.03s.45-.03,2.33,1.5c0,0,1.28.83,3.58.73l-.32.32-1.41.51.07.25h.48l.16.19.03.29.39-.19h.41l.41.35.48-.23v-1.63l.32-.33h1.28l.73.59h.29l.61-.59v-.4l-.96-.71-.73-.29v-.86l.67.29.8.29.41.64s0,.32.25.16.89.57.89.57l.53.31v-.79l-1.1-1.09s-.29-1.57-.45-1.76.09-.35.09-.35l-.48-.32s-1.28-1.53-1.31-2.21-2.14-1.93-2.59-2.07-.8-1.04-3.07-1.36c-2.27-.32-3.26.25-3.87.99l-.55.03s-.39-.48-.64-.83-1.82-1.31-3.33.03l-.51.39-.71.09-.61-.19-1.31-.07s-1.25.23-1.66,1.63l-.71.35L0,2.98v.19s-.07.32.16.32.64-.03.64-.03l.51.03.64.03.48.07.07-.41s.83-.86.99-.96-.09-.09.09-.35.32-.45.48-.35.32.07.19.32l-.13.25-.19.13v.19s.03-.13.09.16.32.32.19.55l-.13.23h0Z"/>
    <g>
      <path class="cls-1" d="M26.03,13.55c-.64.55-1.72.18-1.72.18,0,0-.64.32-.23-.18s.91-.36.91-.36c0,0-.91-.08-1.04-.43s1.04-.16,1.04-.16c0,0-.68-.45-.41-.5s.95.41.95.41c0,0,.32.11.5.47s0,.58,0,.58h0Z"/>
      <path class="cls-1" d="M29.52,11.96c-.72.43-1.73-.11-1.73-.11,0,0-.68.21-.19-.22s.96-.2.96-.2c0,0-.88-.24-.96-.6s1.05.02,1.05.02c0,0-.59-.56-.32-.56s.87.56.87.56c0,0,.29.17.41.54s-.1.57-.1.57h0Z"/>
      <path class="cls-1" d="M33.02,14.04c-.48.69-1.62.61-1.62.61,0,0-.54.47-.26-.12s.79-.58.79-.58c0,0-.9.15-1.12-.15s.97-.42.97-.42c0,0-.77-.27-.52-.38s1.03.16,1.03.16c0,0,.33.03.6.32s.15.56.15.56h0Z"/>
      <path class="cls-1" d="M37.51,13.06c-.64.55-1.72.18-1.72.18,0,0-.64.32-.23-.18s.91-.36.91-.36c0,0-.91-.08-1.04-.43s1.04-.16,1.04-.16c0,0-.68-.45-.41-.5s.95.41.95.41c0,0,.32.11.5.47s0,.58,0,.58h0Z"/>
    </g>
    <g>
      <path class="cls-1" d="M40.77,10.86c-.77.46-1.85-.12-1.85-.12,0,0-.73.22-.21-.23s1.03-.22,1.03-.22c0,0-.95-.25-1.03-.64s1.13.02,1.13.02c0,0-.64-.6-.34-.6s.93.6.93.6c0,0,.32.18.44.58s-.1.61-.1.61h0Z"/>
      <path class="cls-1" d="M44.53,13.09c-.51.74-1.74.65-1.74.65,0,0-.57.5-.28-.13s.84-.62.84-.62c0,0-.96.16-1.2-.16s1.04-.45,1.04-.45c0,0-.83-.29-.56-.41s1.1.16,1.1.16c0,0,.36.03.64.35s.16.6.16.6h0Z"/>
    </g>
  </g>
  <g>
    <g>
      <path class="cls-1" d="M95.15,12.1c-.65.56-1.76.18-1.76.18,0,0-.65.32-.23-.18s.92-.37.92-.37c0,0-.93-.09-1.06-.44s1.06-.16,1.06-.16c0,0-.69-.46-.41-.51s.97.41.97.41c0,0,.32.12.51.48s0,.59,0,.59h0Z"/>
      <path class="cls-1" d="M98.7,10.47c-.73.44-1.76-.11-1.76-.11,0,0-.69.21-.2-.22s.97-.21.97-.21c0,0-.9-.24-.97-.61s1.08.02,1.08.02c0,0-.61-.57-.32-.57s.88.57.88.57c0,0,.3.17.42.56s-.1.58-.1.58h0Z"/>
      <path class="cls-1" d="M102.27,12.59c-.48.7-1.65.62-1.65.62,0,0-.55.48-.27-.12s.8-.59.8-.59c0,0-.92.15-1.14-.16s.99-.43.99-.43c0,0-.79-.27-.53-.39s1.04.16,1.04.16c0,0,.34.03.61.33s.15.57.15.57h0Z"/>
      <path class="cls-1" d="M106.85,11.59c-.65.56-1.76.18-1.76.18,0,0-.65.32-.23-.18s.92-.37.92-.37c0,0-.93-.09-1.06-.44s1.06-.16,1.06-.16c0,0-.69-.46-.41-.51s.97.41.97.41c0,0,.32.12.51.48s0,.59,0,.59h0Z"/>
    </g>
    <g>
      <path class="cls-1" d="M111.18,12.82c-.65.56-1.76.18-1.76.18,0,0-.65.32-.23-.18s.92-.37.92-.37c0,0-.93-.09-1.06-.44s1.06-.16,1.06-.16c0,0-.69-.46-.41-.51s.97.41.97.41c0,0,.32.12.51.48s0,.59,0,.59h0Z"/>
      <path class="cls-1" d="M114.74,11.2c-.73.44-1.76-.11-1.76-.11,0,0-.69.21-.2-.22s.97-.21.97-.21c0,0-.9-.24-.97-.61-.08-.37,1.08.02,1.08.02,0,0-.61-.57-.32-.57s.88.57.88.57c0,0,.3.17.42.56s-.1.58-.1.58h0Z"/>
      <path class="cls-1" d="M118.31,13.32c-.48.7-1.65.62-1.65.62,0,0-.55.48-.27-.12.27-.6.8-.59.8-.59,0,0-.92.15-1.14-.16s.99-.43.99-.43c0,0-.79-.27-.53-.39s1.04.16,1.04.16c0,0,.34.03.61.33s.15.57.15.57h0Z"/>
      <path class="cls-1" d="M122.89,12.32c-.65.56-1.76.18-1.76.18,0,0-.65.32-.23-.18s.92-.37.92-.37c0,0-.93-.09-1.06-.44s1.06-.16,1.06-.16c0,0-.69-.46-.41-.51s.97.41.97.41c0,0,.32.12.51.48s0,.59,0,.59h0Z"/>
    </g>
    <g>
      <path class="cls-1" d="M126.83,10.5c-.73.44-1.76-.11-1.76-.11,0,0-.69.21-.2-.22s.97-.21.97-.21c0,0-.9-.24-.97-.61s1.08.02,1.08.02c0,0-.61-.57-.32-.57s.88.57.88.57c0,0,.3.17.42.56.12.38-.1.58-.1.58h0Z"/>
      <path class="cls-1" d="M130.39,12.62c-.48.7-1.65.62-1.65.62,0,0-.55.48-.27-.12.27-.6.8-.59.8-.59,0,0-.92.15-1.14-.16s.99-.43.99-.43c0,0-.79-.27-.53-.39s1.04.16,1.04.16c0,0,.34.03.61.33s.15.57.15.57h0Z"/>
      <path class="cls-1" d="M134.97,11.62c-.65.56-1.76.18-1.76.18,0,0-.65.32-.23-.18s.92-.37.92-.37c0,0-.93-.09-1.06-.44s1.06-.16,1.06-.16c0,0-.69-.46-.41-.51s.97.41.97.41c0,0,.32.12.51.48s0,.59,0,.59h0Z"/>
    </g>
  </g>
  <g>
    <g>
      <path class="cls-1" d="M95.15,12.1c-.65.56-1.76.18-1.76.18,0,0-.65.32-.23-.18s.92-.37.92-.37c0,0-.93-.09-1.06-.44s1.06-.16,1.06-.16c0,0-.69-.46-.41-.51s.97.41.97.41c0,0,.32.12.51.48s0,.59,0,.59h0Z"/>
      <path class="cls-1" d="M98.7,10.47c-.73.44-1.76-.11-1.76-.11,0,0-.69.21-.2-.22s.97-.21.97-.21c0,0-.9-.24-.97-.61s1.08.02,1.08.02c0,0-.61-.57-.32-.57s.88.57.88.57c0,0,.3.17.42.56s-.1.58-.1.58h0Z"/>
      <path class="cls-1" d="M102.27,12.59c-.48.7-1.65.62-1.65.62,0,0-.55.48-.27-.12s.8-.59.8-.59c0,0-.92.15-1.14-.16s.99-.43.99-.43c0,0-.79-.27-.53-.39s1.04.16,1.04.16c0,0,.34.03.61.33s.15.57.15.57h0Z"/>
      <path class="cls-1" d="M106.85,11.59c-.65.56-1.76.18-1.76.18,0,0-.65.32-.23-.18s.92-.37.92-.37c0,0-.93-.09-1.06-.44s1.06-.16,1.06-.16c0,0-.69-.46-.41-.51s.97.41.97.41c0,0,.32.12.51.48s0,.59,0,.59h0Z"/>
    </g>
    <g>
      <path class="cls-1" d="M111.18,12.82c-.65.56-1.76.18-1.76.18,0,0-.65.32-.23-.18s.92-.37.92-.37c0,0-.93-.09-1.06-.44s1.06-.16,1.06-.16c0,0-.69-.46-.41-.51s.97.41.97.41c0,0,.32.12.51.48s0,.59,0,.59h0Z"/>
      <path class="cls-1" d="M114.74,11.2c-.73.44-1.76-.11-1.76-.11,0,0-.69.21-.2-.22s.97-.21.97-.21c0,0-.9-.24-.97-.61-.08-.37,1.08.02,1.08.02,0,0-.61-.57-.32-.57s.88.57.88.57c0,0,.3.17.42.56s-.1.58-.1.58h0Z"/>
      <path class="cls-1" d="M118.31,13.32c-.48.7-1.65.62-1.65.62,0,0-.55.48-.27-.12.27-.6.8-.59.8-.59,0,0-.92.15-1.14-.16s.99-.43.99-.43c0,0-.79-.27-.53-.39s1.04.16,1.04.16c0,0,.34.03.61.33s.15.57.15.57h0Z"/>
      <path class="cls-1" d="M122.89,12.32c-.65.56-1.76.18-1.76.18,0,0-.65.32-.23-.18s.92-.37.92-.37c0,0-.93-.09-1.06-.44s1.06-.16,1.06-.16c0,0-.69-.46-.41-.51s.97.41.97.41c0,0,.32.12.51.48s0,.59,0,.59h0Z"/>
    </g>
    <g>
      <path class="cls-1" d="M126.83,10.5c-.73.44-1.76-.11-1.76-.11,0,0-.69.21-.2-.22s.97-.21.97-.21c0,0-.9-.24-.97-.61s1.08.02,1.08.02c0,0-.61-.57-.32-.57s.88.57.88.57c0,0,.3.17.42.56.12.38-.1.58-.1.58h0Z"/>
      <path class="cls-1" d="M130.39,12.62c-.48.7-1.65.62-1.65.62,0,0-.55.48-.27-.12.27-.6.8-.59.8-.59,0,0-.92.15-1.14-.16s.99-.43.99-.43c0,0-.79-.27-.53-.39s1.04.16,1.04.16c0,0,.34.03.61.33s.15.57.15.57h0Z"/>
      <path class="cls-1" d="M134.97,11.62c-.65.56-1.76.18-1.76.18,0,0-.65.32-.23-.18s.92-.37.92-.37c0,0-.93-.09-1.06-.44s1.06-.16,1.06-.16c0,0-.69-.46-.41-.51s.97.41.97.41c0,0,.32.12.51.48s0,.59,0,.59h0Z"/>
    </g>
  </g>
</svg>