<?xml version="1.0" encoding="UTF-8"?>
<svg id="Layer_2" xmlns="http://www.w3.org/2000/svg" viewBox="0 0 430.1 94.61">
  <defs>
    <style>
      .cls-1 {
        font-family: PoorRichard-Regular, 'Poor Richard';
        font-size: 41px;
      }

      .cls-1, .cls-2 {
        fill: #231f20;
      }

      .cls-1, .cls-3 {
        isolation: isolate;
      }
    </style>
  </defs>
  <path class="cls-2" d="M137.24,23.59c-2.05,2.73-22.32-10.02-22.32-10.02,0,0-1.37-1.37-2.05,0s0,2.96,0,2.96l-.3,5.24s-1.06,17.08-15.87,19.13v12.3s3.19,7.29,7.06,7.52l10.93,8.2h6.15l14.35-4.33v2.28l-3.87,2.05-2.51,1.37-2.51,3.79-2.51,1.22-6.83-1.22-2.28,3.27h-2.51l-1.37-5.69-1.59-1.82-17.08-8.2-8.65-.23s-3.19-.23-16.62,10.7c0,0-9.11,5.92-25.51,5.24l2.28,2.28,10.02,3.64-.46,1.82h-3.42l-1.14,1.37-.23,2.05-2.73-1.37h-2.96l-2.96,2.51-3.42-1.59v-11.61l-2.28-2.36h-9.11l-5.24,4.19h-2.05l-4.33-4.19v-2.87l6.83-5.01,5.24-2.05v-6.15l-4.78,2.05-5.69,2.05-2.96,4.55s0,2.28-1.82,1.14-6.38,4.1-6.38,4.1l-3.76,2.19v-5.61l7.86-7.74s2.05-11.16,3.19-12.53-.68-2.51-.68-2.51l3.42-2.28s9.11-10.93,9.34-15.71,15.26-13.74,18.45-14.73,5.69-7.36,21.86-9.64,23.23,1.82,27.56,7.06l3.87.23s2.73-3.42,4.55-5.92,12.98-9.34,23.68.23l3.64,2.73,5.01.68,4.33-1.37,9.34-.46s8.88,1.59,11.84,11.61l5.01,2.51,4.1.46v1.37s.46,2.28-1.14,2.28-4.55-.23-4.55-.23l-3.64.23-4.55.23-3.42.46-.46-2.96s-5.92-6.15-7.06-6.83.68-.68-.68-2.51-2.28-3.19-3.42-2.51-2.28.46-1.37,2.28l.91,1.82,1.37.91v1.37s-.23-.91-.68,1.14-2.28,2.28-1.37,3.87l.91,1.59.02-.02Z"/>
  <g class="cls-3">
    <text class="cls-1" transform="translate(172.91 36.56)"><tspan x="0" y="0">The</tspan></text>
    <text class="cls-1" transform="translate(172.91 85.76)"><tspan x="0" y="0">Galloping Goose</tspan></text>
  </g>
</svg>