<?xml version="1.0" encoding="UTF-8"?>
<svg id="Layer_1" xmlns="http://www.w3.org/2000/svg" viewBox="0 0 184.62 12.35">
  <defs>
    <style>
      .cls-1 {
        fill: #231f20;
      }
    </style>
  </defs>
  <g>
    <g>
      <path class="cls-1" d="M4.54,7.08c-1.38,1.18-3.73.39-3.73.39,0,0-1.38.69-.49-.39s1.96-.79,1.96-.79c0,0-1.97-.19-2.26-.93s2.26-.35,2.26-.35c0,0-1.47-.98-.88-1.08s2.06.88,2.06.88c0,0,.69.25,1.08,1.01s0,1.25,0,1.25Z"/>
      <path class="cls-1" d="M12.1,3.63c-1.55.93-3.75-.24-3.75-.24,0,0-1.47.45-.42-.47s2.07-.44,2.07-.44c0,0-1.91-.51-2.07-1.3s2.29.04,2.29.04C10.22,1.21,8.94,0,9.53,0s1.88,1.22,1.88,1.22c0,0,.64.36.89,1.18s-.21,1.23-.21,1.23Z"/>
      <path class="cls-1" d="M19.69,8.14c-1.03,1.49-3.51,1.32-3.51,1.32,0,0-1.16,1.01-.57-.26s1.7-1.26,1.7-1.26c0,0-1.95.32-2.42-.33s2.1-.91,2.1-.91c0,0-1.67-.58-1.13-.82s2.22.34,2.22.34c0,0,.73.07,1.3.7s.32,1.21.32,1.21Z"/>
      <path class="cls-1" d="M29.42,6.01c-1.38,1.18-3.73.39-3.73.39,0,0-1.38.69-.49-.39s1.96-.79,1.96-.79c0,0-1.97-.19-2.26-.93s2.26-.35,2.26-.35c0,0-1.47-.98-.88-1.08s2.06.88,2.06.88c0,0,.69.25,1.08,1.01s0,1.25,0,1.25Z"/>
    </g>
    <g>
      <path class="cls-1" d="M38.63,8.63c-1.38,1.18-3.73.39-3.73.39,0,0-1.38.69-.49-.39s1.96-.79,1.96-.79c0,0-1.97-.19-2.26-.93-.29-.74,2.26-.35,2.26-.35,0,0-1.47-.98-.88-1.08s2.06.88,2.06.88c0,0,.69.25,1.08,1.01s0,1.25,0,1.25Z"/>
      <path class="cls-1" d="M46.19,5.17c-1.55.93-3.75-.24-3.75-.24,0,0-1.47.45-.42-.47s2.07-.44,2.07-.44c0,0-1.91-.51-2.07-1.3-.16-.78,2.29.04,2.29.04,0,0-1.29-1.22-.69-1.21s1.88,1.22,1.88,1.22c0,0,.64.36.89,1.18s-.21,1.23-.21,1.23Z"/>
      <path class="cls-1" d="M53.77,9.68c-1.03,1.49-3.51,1.32-3.51,1.32,0,0-1.16,1.01-.57-.26.58-1.27,1.7-1.26,1.7-1.26,0,0-1.95.32-2.42-.33s2.1-.91,2.1-.91c0,0-1.67-.58-1.13-.82s2.22.34,2.22.34c0,0,.73.07,1.3.7s.32,1.21.32,1.21Z"/>
      <path class="cls-1" d="M63.5,7.55c-1.38,1.18-3.73.39-3.73.39,0,0-1.38.69-.49-.39s1.96-.79,1.96-.79c0,0-1.97-.19-2.26-.93s2.26-.35,2.26-.35c0,0-1.47-.98-.88-1.08s2.06.88,2.06.88c0,0,.69.25,1.08,1.01s0,1.25,0,1.25Z"/>
    </g>
    <g>
      <path class="cls-1" d="M71.87,3.69c-1.55.93-3.75-.24-3.75-.24,0,0-1.47.45-.42-.47s2.07-.44,2.07-.44c0,0-1.91-.51-2.07-1.3s2.29.04,2.29.04c0,0-1.29-1.22-.69-1.21s1.88,1.22,1.88,1.22c0,0,.64.36.89,1.18s-.21,1.23-.21,1.23Z"/>
      <path class="cls-1" d="M79.46,8.2c-1.03,1.49-3.51,1.32-3.51,1.32,0,0-1.16,1.01-.57-.26.58-1.27,1.7-1.26,1.7-1.26,0,0-1.95.32-2.42-.33s2.1-.91,2.1-.91c0,0-1.67-.58-1.13-.82s2.22.34,2.22.34c0,0,.73.07,1.3.7s.32,1.21.32,1.21Z"/>
      <path class="cls-1" d="M89.19,6.07c-1.38,1.18-3.73.39-3.73.39,0,0-1.38.69-.49-.39s1.96-.79,1.96-.79c0,0-1.97-.19-2.26-.93s2.26-.35,2.26-.35c0,0-1.47-.98-.88-1.08s2.06.88,2.06.88c0,0,.69.25,1.08,1.01s0,1.25,0,1.25Z"/>
    </g>
  </g>
  <g>
    <g>
      <path class="cls-1" d="M4.54,7.08c-1.38,1.18-3.73.39-3.73.39,0,0-1.38.69-.49-.39s1.96-.79,1.96-.79c0,0-1.97-.19-2.26-.93s2.26-.35,2.26-.35c0,0-1.47-.98-.88-1.08s2.06.88,2.06.88c0,0,.69.25,1.08,1.01s0,1.25,0,1.25Z"/>
      <path class="cls-1" d="M12.1,3.63c-1.55.93-3.75-.24-3.75-.24,0,0-1.47.45-.42-.47s2.07-.44,2.07-.44c0,0-1.91-.51-2.07-1.3s2.29.04,2.29.04C10.22,1.21,8.94,0,9.53,0s1.88,1.22,1.88,1.22c0,0,.64.36.89,1.18s-.21,1.23-.21,1.23Z"/>
      <path class="cls-1" d="M19.69,8.14c-1.03,1.49-3.51,1.32-3.51,1.32,0,0-1.16,1.01-.57-.26s1.7-1.26,1.7-1.26c0,0-1.95.32-2.42-.33s2.1-.91,2.1-.91c0,0-1.67-.58-1.13-.82s2.22.34,2.22.34c0,0,.73.07,1.3.7s.32,1.21.32,1.21Z"/>
      <path class="cls-1" d="M29.42,6.01c-1.38,1.18-3.73.39-3.73.39,0,0-1.38.69-.49-.39s1.96-.79,1.96-.79c0,0-1.97-.19-2.26-.93s2.26-.35,2.26-.35c0,0-1.47-.98-.88-1.08s2.06.88,2.06.88c0,0,.69.25,1.08,1.01s0,1.25,0,1.25Z"/>
    </g>
    <g>
      <path class="cls-1" d="M38.63,8.63c-1.38,1.18-3.73.39-3.73.39,0,0-1.38.69-.49-.39s1.96-.79,1.96-.79c0,0-1.97-.19-2.26-.93s2.26-.35,2.26-.35c0,0-1.47-.98-.88-1.08s2.06.88,2.06.88c0,0,.69.25,1.08,1.01s0,1.25,0,1.25Z"/>
      <path class="cls-1" d="M46.19,5.17c-1.55.93-3.75-.24-3.75-.24,0,0-1.47.45-.42-.47s2.07-.44,2.07-.44c0,0-1.91-.51-2.07-1.3-.16-.78,2.29.04,2.29.04,0,0-1.29-1.22-.69-1.21s1.88,1.22,1.88,1.22c0,0,.64.36.89,1.18s-.21,1.23-.21,1.23Z"/>
      <path class="cls-1" d="M53.77,9.68c-1.03,1.49-3.51,1.32-3.51,1.32,0,0-1.16,1.01-.57-.26.58-1.27,1.7-1.26,1.7-1.26,0,0-1.95.32-2.42-.33s2.1-.91,2.1-.91c0,0-1.67-.58-1.13-.82s2.22.34,2.22.34c0,0,.73.07,1.3.7s.32,1.21.32,1.21Z"/>
      <path class="cls-1" d="M63.5,7.55c-1.38,1.18-3.73.39-3.73.39,0,0-1.38.69-.49-.39s1.96-.79,1.96-.79c0,0-1.97-.19-2.26-.93s2.26-.35,2.26-.35c0,0-1.47-.98-.88-1.08s2.06.88,2.06.88c0,0,.69.25,1.08,1.01s0,1.25,0,1.25Z"/>
    </g>
    <g>
      <path class="cls-1" d="M71.87,3.69c-1.55.93-3.75-.24-3.75-.24,0,0-1.47.45-.42-.47s2.07-.44,2.07-.44c0,0-1.91-.51-2.07-1.3s2.29.04,2.29.04c0,0-1.29-1.22-.69-1.21s1.88,1.22,1.88,1.22c0,0,.64.36.89,1.18s-.21,1.23-.21,1.23Z"/>
      <path class="cls-1" d="M79.46,8.2c-1.03,1.49-3.51,1.32-3.51,1.32,0,0-1.16,1.01-.57-.26.58-1.27,1.7-1.26,1.7-1.26,0,0-1.95.32-2.42-.33s2.1-.91,2.1-.91c0,0-1.67-.58-1.13-.82s2.22.34,2.22.34c0,0,.73.07,1.3.7s.32,1.21.32,1.21Z"/>
      <path class="cls-1" d="M89.19,6.07c-1.38,1.18-3.73.39-3.73.39,0,0-1.38.69-.49-.39s1.96-.79,1.96-.79c0,0-1.97-.19-2.26-.93s2.26-.35,2.26-.35c0,0-1.47-.98-.88-1.08s2.06.88,2.06.88c0,0,.69.25,1.08,1.01s0,1.25,0,1.25Z"/>
    </g>
  </g>
  <g>
    <g>
      <path class="cls-1" d="M99.79,8.05c-1.38,1.18-3.73.39-3.73.39,0,0-1.38.69-.49-.39s1.96-.79,1.96-.79c0,0-1.97-.19-2.26-.93s2.26-.35,2.26-.35c0,0-1.47-.98-.88-1.08s2.06.88,2.06.88c0,0,.69.25,1.08,1.01s0,1.25,0,1.25Z"/>
      <path class="cls-1" d="M107.35,4.59c-1.55.93-3.75-.24-3.75-.24,0,0-1.47.45-.42-.47s2.07-.44,2.07-.44c0,0-1.91-.51-2.07-1.3s2.29.04,2.29.04c0,0-1.29-1.22-.69-1.21s1.88,1.22,1.88,1.22c0,0,.64.36.89,1.18s-.21,1.23-.21,1.23Z"/>
      <path class="cls-1" d="M114.93,9.11c-1.03,1.49-3.51,1.32-3.51,1.32,0,0-1.16,1.01-.57-.26s1.7-1.26,1.7-1.26c0,0-1.95.32-2.42-.33s2.1-.91,2.1-.91c0,0-1.67-.58-1.13-.82s2.22.34,2.22.34c0,0,.73.07,1.3.7s.32,1.21.32,1.21Z"/>
      <path class="cls-1" d="M124.67,6.97c-1.38,1.18-3.73.39-3.73.39,0,0-1.38.69-.49-.39s1.96-.79,1.96-.79c0,0-1.97-.19-2.26-.93s2.26-.35,2.26-.35c0,0-1.47-.98-.88-1.08s2.06.88,2.06.88c0,0,.69.25,1.08,1.01s0,1.25,0,1.25Z"/>
    </g>
    <g>
      <path class="cls-1" d="M133.88,9.59c-1.38,1.18-3.73.39-3.73.39,0,0-1.38.69-.49-.39s1.96-.79,1.96-.79c0,0-1.97-.19-2.26-.93s2.26-.35,2.26-.35c0,0-1.47-.98-.88-1.08s2.06.88,2.06.88c0,0,.69.25,1.08,1.01s0,1.25,0,1.25Z"/>
      <path class="cls-1" d="M141.43,6.14c-1.55.93-3.75-.24-3.75-.24,0,0-1.47.45-.42-.47s2.07-.44,2.07-.44c0,0-1.91-.51-2.07-1.3-.16-.78,2.29.04,2.29.04,0,0-1.29-1.22-.69-1.21s1.88,1.22,1.88,1.22c0,0,.64.36.89,1.18s-.21,1.23-.21,1.23Z"/>
      <path class="cls-1" d="M149.02,10.65c-1.03,1.49-3.51,1.32-3.51,1.32,0,0-1.16,1.01-.57-.26.58-1.27,1.7-1.26,1.7-1.26,0,0-1.95.32-2.42-.33s2.1-.91,2.1-.91c0,0-1.67-.58-1.13-.82s2.22.34,2.22.34c0,0,.73.07,1.3.7s.32,1.21.32,1.21Z"/>
      <path class="cls-1" d="M158.75,8.52c-1.38,1.18-3.73.39-3.73.39,0,0-1.38.69-.49-.39s1.96-.79,1.96-.79c0,0-1.97-.19-2.26-.93s2.26-.35,2.26-.35c0,0-1.47-.98-.88-1.08s2.06.88,2.06.88c0,0,.69.25,1.08,1.01s0,1.25,0,1.25Z"/>
    </g>
    <g>
      <path class="cls-1" d="M167.12,4.65c-1.55.93-3.75-.24-3.75-.24,0,0-1.47.45-.42-.47s2.07-.44,2.07-.44c0,0-1.91-.51-2.07-1.3s2.29.04,2.29.04c0,0-1.29-1.22-.69-1.21s1.88,1.22,1.88,1.22c0,0,.64.36.89,1.18s-.21,1.23-.21,1.23Z"/>
      <path class="cls-1" d="M174.71,9.16c-1.03,1.49-3.51,1.32-3.51,1.32,0,0-1.16,1.01-.57-.26.58-1.27,1.7-1.26,1.7-1.26,0,0-1.95.32-2.42-.33s2.1-.91,2.1-.91c0,0-1.67-.58-1.13-.82s2.22.34,2.22.34c0,0,.73.07,1.3.7s.32,1.21.32,1.21Z"/>
      <path class="cls-1" d="M184.44,7.03c-1.38,1.18-3.73.39-3.73.39,0,0-1.38.69-.49-.39s1.96-.79,1.96-.79c0,0-1.97-.19-2.26-.93s2.26-.35,2.26-.35c0,0-1.47-.98-.88-1.08s2.06.88,2.06.88c0,0,.69.25,1.08,1.01s0,1.25,0,1.25Z"/>
    </g>
  </g>
</svg>