<?xml version="1.0" encoding="UTF-8"?>
<svg id="Layer_1" xmlns="http://www.w3.org/2000/svg" viewBox="0 0 189.54 31.49">
  <defs>
    <style>
      .cls-1 {
        fill: #231f20;
      }
    </style>
  </defs>
  <g>
    <g>
      <path class="cls-1" d="M104.72,25.08c-1.38,1.18-3.73.39-3.73.39,0,0-1.38.69-.49-.39s1.96-.79,1.96-.79c0,0-1.97-.19-2.26-.93s2.26-.35,2.26-.35c0,0-1.47-.98-.88-1.08s2.06.88,2.06.88c0,0,.69.25,1.08,1.01s0,1.25,0,1.25Z"/>
      <path class="cls-1" d="M112.27,21.62c-1.55.93-3.75-.24-3.75-.24,0,0-1.47.45-.42-.47s2.07-.44,2.07-.44c0,0-1.91-.51-2.07-1.3s2.29.04,2.29.04c0,0-1.29-1.22-.69-1.21s1.88,1.22,1.88,1.22c0,0,.64.36.89,1.18s-.21,1.23-.21,1.23Z"/>
      <path class="cls-1" d="M119.86,26.13c-1.03,1.49-3.51,1.32-3.51,1.32,0,0-1.16,1.01-.57-.26s1.7-1.26,1.7-1.26c0,0-1.95.32-2.42-.33s2.1-.91,2.1-.91c0,0-1.67-.58-1.13-.82s2.22.34,2.22.34c0,0,.73.07,1.3.7s.32,1.21.32,1.21Z"/>
      <path class="cls-1" d="M129.59,24c-1.38,1.18-3.73.39-3.73.39,0,0-1.38.69-.49-.39s1.96-.79,1.96-.79c0,0-1.97-.19-2.26-.93s2.26-.35,2.26-.35c0,0-1.47-.98-.88-1.08s2.06.88,2.06.88c0,0,.69.25,1.08,1.01s0,1.25,0,1.25Z"/>
    </g>
    <g>
      <path class="cls-1" d="M138.8,26.62c-1.38,1.18-3.73.39-3.73.39,0,0-1.38.69-.49-.39s1.96-.79,1.96-.79c0,0-1.97-.19-2.26-.93-.29-.74,2.26-.35,2.26-.35,0,0-1.47-.98-.88-1.08s2.06.88,2.06.88c0,0,.69.25,1.08,1.01s0,1.25,0,1.25Z"/>
      <path class="cls-1" d="M146.36,23.17c-1.55.93-3.75-.24-3.75-.24,0,0-1.47.45-.42-.47s2.07-.44,2.07-.44c0,0-1.91-.51-2.07-1.3-.16-.78,2.29.04,2.29.04,0,0-1.29-1.22-.69-1.21s1.88,1.22,1.88,1.22c0,0,.64.36.89,1.18s-.21,1.23-.21,1.23Z"/>
      <path class="cls-1" d="M153.94,27.68c-1.03,1.49-3.51,1.32-3.51,1.32,0,0-1.16,1.01-.57-.26.58-1.27,1.7-1.26,1.7-1.26,0,0-1.95.32-2.42-.33s2.1-.91,2.1-.91c0,0-1.67-.58-1.13-.82s2.22.34,2.22.34c0,0,.73.07,1.3.7s.32,1.21.32,1.21Z"/>
      <path class="cls-1" d="M163.68,25.55c-1.38,1.18-3.73.39-3.73.39,0,0-1.38.69-.49-.39s1.96-.79,1.96-.79c0,0-1.97-.19-2.26-.93s2.26-.35,2.26-.35c0,0-1.47-.98-.88-1.08s2.06.88,2.06.88c0,0,.69.25,1.08,1.01s0,1.25,0,1.25Z"/>
    </g>
    <g>
      <path class="cls-1" d="M172.05,21.68c-1.55.93-3.75-.24-3.75-.24,0,0-1.47.45-.42-.47,1.05-.92,2.07-.44,2.07-.44,0,0-1.91-.51-2.07-1.3s2.29.04,2.29.04c0,0-1.29-1.22-.69-1.21s1.88,1.22,1.88,1.22c0,0,.64.36.89,1.18.26.81-.21,1.23-.21,1.23Z"/>
      <path class="cls-1" d="M179.63,26.19c-1.03,1.49-3.51,1.32-3.51,1.32,0,0-1.16,1.01-.57-.26.58-1.27,1.7-1.26,1.7-1.26,0,0-1.95.32-2.42-.33s2.1-.91,2.1-.91c0,0-1.67-.58-1.13-.82s2.22.34,2.22.34c0,0,.73.07,1.3.7s.32,1.21.32,1.21Z"/>
      <path class="cls-1" d="M189.36,24.06c-1.38,1.18-3.73.39-3.73.39,0,0-1.38.69-.49-.39s1.96-.79,1.96-.79c0,0-1.97-.19-2.26-.93s2.26-.35,2.26-.35c0,0-1.47-.98-.88-1.08s2.06.88,2.06.88c0,0,.69.25,1.08,1.01s0,1.25,0,1.25Z"/>
    </g>
  </g>
  <g>
    <g>
      <path class="cls-1" d="M104.72,25.08c-1.38,1.18-3.73.39-3.73.39,0,0-1.38.69-.49-.39s1.96-.79,1.96-.79c0,0-1.97-.19-2.26-.93s2.26-.35,2.26-.35c0,0-1.47-.98-.88-1.08s2.06.88,2.06.88c0,0,.69.25,1.08,1.01s0,1.25,0,1.25Z"/>
      <path class="cls-1" d="M112.27,21.62c-1.55.93-3.75-.24-3.75-.24,0,0-1.47.45-.42-.47s2.07-.44,2.07-.44c0,0-1.91-.51-2.07-1.3s2.29.04,2.29.04c0,0-1.29-1.22-.69-1.21s1.88,1.22,1.88,1.22c0,0,.64.36.89,1.18s-.21,1.23-.21,1.23Z"/>
      <path class="cls-1" d="M119.86,26.13c-1.03,1.49-3.51,1.32-3.51,1.32,0,0-1.16,1.01-.57-.26s1.7-1.26,1.7-1.26c0,0-1.95.32-2.42-.33s2.1-.91,2.1-.91c0,0-1.67-.58-1.13-.82s2.22.34,2.22.34c0,0,.73.07,1.3.7s.32,1.21.32,1.21Z"/>
      <path class="cls-1" d="M129.59,24c-1.38,1.18-3.73.39-3.73.39,0,0-1.38.69-.49-.39s1.96-.79,1.96-.79c0,0-1.97-.19-2.26-.93s2.26-.35,2.26-.35c0,0-1.47-.98-.88-1.08s2.06.88,2.06.88c0,0,.69.25,1.08,1.01s0,1.25,0,1.25Z"/>
    </g>
    <g>
      <path class="cls-1" d="M138.8,26.62c-1.38,1.18-3.73.39-3.73.39,0,0-1.38.69-.49-.39s1.96-.79,1.96-.79c0,0-1.97-.19-2.26-.93s2.26-.35,2.26-.35c0,0-1.47-.98-.88-1.08s2.06.88,2.06.88c0,0,.69.25,1.08,1.01s0,1.25,0,1.25Z"/>
      <path class="cls-1" d="M146.36,23.17c-1.55.93-3.75-.24-3.75-.24,0,0-1.47.45-.42-.47s2.07-.44,2.07-.44c0,0-1.91-.51-2.07-1.3-.16-.78,2.29.04,2.29.04,0,0-1.29-1.22-.69-1.21s1.88,1.22,1.88,1.22c0,0,.64.36.89,1.18s-.21,1.23-.21,1.23Z"/>
      <path class="cls-1" d="M153.94,27.68c-1.03,1.49-3.51,1.32-3.51,1.32,0,0-1.16,1.01-.57-.26.58-1.27,1.7-1.26,1.7-1.26,0,0-1.95.32-2.42-.33s2.1-.91,2.1-.91c0,0-1.67-.58-1.13-.82s2.22.34,2.22.34c0,0,.73.07,1.3.7s.32,1.21.32,1.21Z"/>
      <path class="cls-1" d="M163.68,25.55c-1.38,1.18-3.73.39-3.73.39,0,0-1.38.69-.49-.39s1.96-.79,1.96-.79c0,0-1.97-.19-2.26-.93s2.26-.35,2.26-.35c0,0-1.47-.98-.88-1.08s2.06.88,2.06.88c0,0,.69.25,1.08,1.01s0,1.25,0,1.25Z"/>
    </g>
    <g>
      <path class="cls-1" d="M172.05,21.68c-1.55.93-3.75-.24-3.75-.24,0,0-1.47.45-.42-.47,1.05-.92,2.07-.44,2.07-.44,0,0-1.91-.51-2.07-1.3s2.29.04,2.29.04c0,0-1.29-1.22-.69-1.21s1.88,1.22,1.88,1.22c0,0,.64.36.89,1.18.26.81-.21,1.23-.21,1.23Z"/>
      <path class="cls-1" d="M179.63,26.19c-1.03,1.49-3.51,1.32-3.51,1.32,0,0-1.16,1.01-.57-.26.58-1.27,1.7-1.26,1.7-1.26,0,0-1.95.32-2.42-.33s2.1-.91,2.1-.91c0,0-1.67-.58-1.13-.82s2.22.34,2.22.34c0,0,.73.07,1.3.7s.32,1.21.32,1.21Z"/>
      <path class="cls-1" d="M189.36,24.06c-1.38,1.18-3.73.39-3.73.39,0,0-1.38.69-.49-.39s1.96-.79,1.96-.79c0,0-1.97-.19-2.26-.93s2.26-.35,2.26-.35c0,0-1.47-.98-.88-1.08s2.06.88,2.06.88c0,0,.69.25,1.08,1.01s0,1.25,0,1.25Z"/>
    </g>
  </g>
  <g>
    <path class="cls-1" d="M8.72,7.05c.61.82,6.66-2.99,6.66-2.99,0,0,.41-.41.61,0s0,.88,0,.88l.09,1.56s.32,5.1,4.73,5.71v3.67s-.95,2.17-2.11,2.24l-3.26,2.45h-1.83s-4.28-1.29-4.28-1.29v.68s1.16.61,1.16.61l.75.41.75,1.13.75.37,2.04-.37.68.98h.75s.41-1.7.41-1.7l.48-.54,5.1-2.45,2.58-.07s.95-.07,4.96,3.19c0,0,2.72,1.77,7.61,1.56l-.68.68-2.99,1.09.14.54h1.02s.34.41.34.41l.07.61.82-.41h.88s.88.75.88.75l1.02-.48v-3.47s.68-.71.68-.71h1.43s.68,0,.68,0h.61s1.56,1.25,1.56,1.25h.61s1.29-1.25,1.29-1.25v-.86s-2.04-1.5-2.04-1.5l-1.56-.61v-1.83s1.43.61,1.43.61l1.7.61.88,1.36s0,.68.54.34,1.9,1.22,1.9,1.22l1.12.65v-.65s0-1.02,0-1.02l-2.34-2.31s-.61-3.33-.95-3.74.2-.75.2-.75l-1.02-.68s-2.72-3.26-2.79-4.69-4.55-4.1-5.5-4.39-1.7-2.2-6.52-2.88c-4.83-.68-6.93.54-8.22,2.11l-1.16.07s-.82-1.02-1.36-1.77-3.87-2.79-7.07.07l-1.09.82-1.5.2-1.29-.41-2.79-.14s-2.65.48-3.53,3.47l-1.5.75L.02,6.3v.41s-.14.68.34.68,1.36-.07,1.36-.07l1.09.07,1.36.07,1.02.14.14-.88s1.77-1.83,2.11-2.04-.2-.2.2-.75.68-.95,1.02-.75.68.14.41.68l-.27.54-.41.27v.41s.07-.27.2.34.68.68.41,1.16l-.27.48Z"/>
    <g>
      <path class="cls-1" d="M55.32,28.78c-1.35,1.16-3.66.39-3.66.39,0,0-1.35.67-.48-.39s1.93-.77,1.93-.77c0,0-1.93-.18-2.22-.91s2.22-.34,2.22-.34c0,0-1.44-.96-.87-1.06s2.02.87,2.02.87c0,0,.67.24,1.06.99s0,1.23,0,1.23Z"/>
      <path class="cls-1" d="M62.73,25.39c-1.52.91-3.67-.24-3.67-.24,0,0-1.44.44-.41-.46s2.03-.43,2.03-.43c0,0-1.87-.51-2.03-1.27s2.24.04,2.24.04c0,0-1.26-1.19-.68-1.19s1.85,1.2,1.85,1.2c0,0,.62.36.88,1.15s-.21,1.21-.21,1.21Z"/>
      <path class="cls-1" d="M70.17,29.82c-1.01,1.46-3.45,1.3-3.45,1.3,0,0-1.14.99-.56-.25s1.67-1.23,1.67-1.23c0,0-1.91.31-2.37-.32s2.06-.89,2.06-.89c0,0-1.64-.57-1.11-.81s2.18.33,2.18.33c0,0,.71.07,1.28.69s.31,1.19.31,1.19Z"/>
      <path class="cls-1" d="M79.72,27.73c-1.35,1.16-3.66.39-3.66.39,0,0-1.35.67-.48-.39s1.93-.77,1.93-.77c0,0-1.93-.18-2.22-.91s2.22-.34,2.22-.34c0,0-1.44-.96-.87-1.06s2.02.87,2.02.87c0,0,.67.24,1.06.99s0,1.23,0,1.23Z"/>
    </g>
    <g>
      <path class="cls-1" d="M86.65,23.05c-1.64.98-3.94-.26-3.94-.26,0,0-1.55.47-.44-.49s2.18-.47,2.18-.47c0,0-2.01-.54-2.18-1.36s2.41.04,2.41.04c0,0-1.35-1.28-.72-1.28s1.98,1.28,1.98,1.28c0,0,.67.38.94,1.24s-.22,1.3-.22,1.3Z"/>
      <path class="cls-1" d="M94.63,27.8c-1.09,1.57-3.7,1.39-3.7,1.39,0,0-1.22,1.07-.6-.27s1.79-1.32,1.79-1.32c0,0-2.05.33-2.55-.34s2.21-.96,2.21-.96c0,0-1.76-.61-1.19-.87s2.34.35,2.34.35c0,0,.77.07,1.37.74s.33,1.27.33,1.27Z"/>
    </g>
  </g>
</svg>