<?xml version="1.0" encoding="UTF-8"?>
<svg id="Layer_1" xmlns="http://www.w3.org/2000/svg" viewBox="0 0 74.73 52.87">
  <defs>
    <style>
      .cls-1 {
        fill: #ffd3db;
      }
    </style>
  </defs>
  <polyline class="cls-1" points="52.57 51.35 52.57 30.07 50.61 30.38 50.61 51.35 51.37 51.35 52.57 52.25"/>
  <polyline class="cls-1" points="57.93 51.49 57.93 13.15 55.97 22.58 55.97 51.49 56.73 51.49 57.93 52.39"/>
  <polyline class="cls-1" points="63.54 52.02 63.54 43.38 61.58 43.5 61.58 52.02 62.34 52.02 63.54 52.39"/>
  <polyline class="cls-1" points="61.58 14.03 61.58 22.67 63.54 22.55 63.54 14.03 62.78 14.03 61.58 13.66"/>
  <polyline class="cls-1" points="65.57 5.07 65.57 50.95 67.44 50.95 67.44 5.07 66.72 5.07 65.57 3.53"/>
  <polygon class="cls-1" points="72.75 21.63 67.24 34 68.09 36.91 69.12 34.59 72.75 26.45 72.75 21.63"/>
  <polygon class="cls-1" points="68.95 34.28 74.73 50.97 72.54 50.97 67.24 35.1 68.95 34.28"/>
  <g>
    <polyline class="cls-1" points="13.68 22.56 13.68 1.28 11.72 1.59 11.72 22.56 12.48 22.56 13.68 23.46"/>
    <polyline class="cls-1" points="14.51 23.55 24.03 1.84 21.89 1.28 12.7 22.78 13.4 23.07 14.15 24.38"/>
  </g>
  <polyline class="cls-1" points="27.34 22.98 27.34 .76 25.38 1.08 25.38 22.98 26.13 22.98 27.34 23.92"/>
  <polyline class="cls-1" points="33.2 22.53 33.2 1.25 31.24 1.56 31.24 22.53 31.99 22.53 33.2 23.43"/>
  <polyline class="cls-1" points="31.47 12.96 37.07 12.96 36.99 11 31.47 11 31.47 11.76 31.24 12.96"/>
  <rect class="cls-1" width="73.25" height="1.92"/>
  <rect class="cls-1" y="50.95" width="74.73" height="1.92"/>
  <rect class="cls-1" width="8.29" height="51.91"/>
  <polygon class="cls-1" points="30.6 50.95 64.21 1.92 73.25 1.92 39.64 50.97 30.6 50.95"/>
  <polygon class="cls-1" points="63.54 0 73.25 0 73.25 2.04 64.21 2.04 63.54 0"/>
  <rect class="cls-1" x="8.29" y="22.29" width="29.08" height="2.33"/>
</svg>