<?xml version="1.0" encoding="UTF-8"?><svg id="Layer_2" xmlns="http://www.w3.org/2000/svg" viewBox="0 0 328.86 124.67"><defs><style>.cls-1{letter-spacing:0em;}.cls-2{font-size:101px;}.cls-2,.cls-3,.cls-4{fill:#fff;}.cls-2,.cls-4{font-family:Arial-BoldMT, Arial;font-weight:700;}.cls-5{letter-spacing:-.06em;}.cls-4{font-size:28.98px;}</style></defs><path class="cls-3" d="M66.34,45.56c1.51-3.29,2.35-6.92,2.35-10.75,0-14.75-12.44-26.7-27.79-26.7s-27.79,11.95-27.79,26.7c0,3.73.8,7.28,2.23,10.5C6.55,47.37,0,55.25,0,64.67c0,10.99,8.91,19.9,19.9,19.9,1.14,0,2.25-.12,3.34-.3l-10.53-10.46v-2.54h1.96l12.4,11.95c4.3-1.67,7.88-4.77,10.13-8.74l.36-31.66h5.24v30.31c.98,2.09,2.3,3.99,3.91,5.6l17.86-17.82h2.15v1.82l-17.81,17.88c3.32,2.48,7.43,3.97,11.9,3.97,10.99,0,19.9-8.91,19.9-19.9,0-9.07-6.07-16.71-14.37-19.11Z"/><path class="cls-3" d="M42.8,82.62v-9.5c-1.21-2.57-1.9-5.43-1.9-8.45,0-1.08.11-2.13.27-3.16-.09,0-.18,0-.27,0-.46,0-.92-.01-1.37-.03.17,1.04.28,2.1.28,3.19,0,3.57-.95,6.91-2.6,9.81l-.21,18.31-9.93-9.57c-1.22.47-2.5.83-3.83,1.05l13.7,13.61.02-1.81-.23,20.68h6.07v-30.02l6.1-6.13c-.77-.58-1.52-1.19-2.2-1.88l-3.91,3.9Z"/><text class="cls-2" transform="translate(71.73 86.65)"><tspan class="cls-5" x="0" y="0">T</tspan><tspan class="cls-1" x="56.12" y="0">ree</tspan></text><text class="cls-4" transform="translate(94.33 110.52) scale(1.04 1)"><tspan x="0" y="0">Photography</tspan></text></svg>